<?xml version="1.0" encoding="UTF-8" standalone="no"?>
<!-- Created with Inkscape (http://www.inkscape.org/) -->

<svg
   xmlns:dc="http://purl.org/dc/elements/1.1/"
   xmlns:cc="http://creativecommons.org/ns#"
   xmlns:rdf="http://www.w3.org/1999/02/22-rdf-syntax-ns#"
   xmlns:svg="http://www.w3.org/2000/svg"
   xmlns="http://www.w3.org/2000/svg"
   xmlns:sodipodi="http://sodipodi.sourceforge.net/DTD/sodipodi-0.dtd"
   xmlns:inkscape="http://www.inkscape.org/namespaces/inkscape"
   width="46.30209mm"
   height="48.118542mm"
   viewBox="0 0 46.30209 48.118542"
   version="1.1"
   id="svg1056"
   inkscape:version="0.92.2 (5c3e80d, 2017-08-06)"
   sodipodi:docname="logo.svg">
  <defs
     id="defs1050" />
  <sodipodi:namedview
     id="base"
     pagecolor="#ffffff"
     bordercolor="#666666"
     borderopacity="1.0"
     inkscape:pageopacity="0.0"
     inkscape:pageshadow="2"
     inkscape:zoom="1.4"
     inkscape:cx="353.99491"
     inkscape:cy="159.3839"
     inkscape:document-units="mm"
     inkscape:current-layer="layer1"
     showgrid="true"
     fit-margin-top="0"
     fit-margin-left="0"
     fit-margin-right="0"
     fit-margin-bottom="0"
     inkscape:window-width="1920"
     inkscape:window-height="1027"
     inkscape:window-x="-8"
     inkscape:window-y="-8"
     inkscape:window-maximized="1">
    <inkscape:grid
       type="xygrid"
       id="grid1617"
       originx="-1.3229121"
       originy="-2.64583" />
  </sodipodi:namedview>
  <metadata
     id="metadata1053">
    <rdf:RDF>
      <cc:Work
         rdf:about="">
        <dc:format>image/svg+xml</dc:format>
        <dc:type
           rdf:resource="http://purl.org/dc/dcmitype/StillImage" />
        <dc:title></dc:title>
      </cc:Work>
    </rdf:RDF>
  </metadata>
  <g
     inkscape:label="レイヤー 1"
     inkscape:groupmode="layer"
     id="layer1"
     transform="translate(-1.3229121,-246.23563)">
    <path
       style="fill:#33abff;fill-opacity:1;stroke:none;stroke-width:0.26458332"
       d="m 29.104162,262.27514 2.645833,4.58272 -3.968744,2.29137 3.96875,6.87407 3.96875,-2.29136 2.645833,4.58272 9.260417,-16.03951 z"
       id="path4097-3"
       inkscape:connector-curvature="0"
       sodipodi:nodetypes="cccccccc"
       inkscape:export-filename="C:\Users\Ziphil\Documents\ドキュメント\人工言語\資料\シャレイア語ロゴ (ヘッダー用).png"
       inkscape:export-xdpi="188.05121"
       inkscape:export-ydpi="188.05121" />
    <path
       style="fill:#ffc333;fill-opacity:1;stroke:none;stroke-width:0.26458332"
       d="m 19.843745,278.31466 h 18.520839 l -3.175005,-5.49926 c -0.132292,-0.22914 -0.330724,-0.34371 -0.595308,-0.34371 -0.424283,0 -0.396875,0.91655 -0.992187,1.26025 -0.696886,0.40235 -2.116667,0 -3.042708,-1.60395 -0.926042,-1.60395 -0.463021,-3.09333 0.132291,-3.43704 0.595318,-0.3437 1.322917,0.22914 1.587495,-0.22914 0.132297,-0.22913 0.132297,-0.45827 0,-0.6874 l -3.175,-5.49927 -2.645833,4.58272 -3.968745,-2.29136 -3.96875,6.87408 3.96081,2.30511 z"
       id="path3084-51-7-8"
       inkscape:connector-curvature="0"
       sodipodi:nodetypes="ccssscssccccccc"
       inkscape:export-filename="C:\Users\Ziphil\Documents\ドキュメント\人工言語\資料\シャレイア語ロゴ (ヘッダー用).png"
       inkscape:export-xdpi="188.05121"
       inkscape:export-ydpi="188.05121" />
    <path
       style="fill:#ffdb33;fill-opacity:1;stroke:none;stroke-width:0.26458332"
       d="m 10.583331,262.27514 2.645831,4.58272 -3.968742,2.29137 3.968747,6.87407 3.96875,-2.29136 2.645828,4.58272 3.175,-5.49926 c 0.132292,-0.22914 0.132292,-0.45827 0,-0.68741 -0.21214,-0.36744 -0.992187,0.11457 -1.5875,-0.22914 -0.696886,-0.40235 -1.058333,-1.83308 -0.132291,-3.43704 0.926041,-1.60395 2.447395,-1.94765 3.042708,-1.60395 0.595312,0.34372 0.463021,1.26025 0.992187,1.26025 0.264584,0 0.463021,-0.11457 0.595313,-0.3437 l 3.175,-5.49926 h -5.277681 l -0.01397,-4.58272 h -7.9375 l 0.0096,4.58272 z"
       id="path3084-5-7"
       inkscape:connector-curvature="0"
       sodipodi:nodetypes="ccccccssscssccccccc"
       inkscape:export-filename="C:\Users\Ziphil\Documents\ドキュメント\人工言語\資料\シャレイア語ロゴ (ヘッダー用).png"
       inkscape:export-xdpi="188.05121"
       inkscape:export-ydpi="188.05121" />
    <path
       style="fill:#ff9433;fill-opacity:1;stroke:none;stroke-width:0.26458332"
       d="m 19.843745,246.23563 -9.260414,16.03951 6.350003,10e-6 c 0.264583,-10e-6 0.463015,-0.11458 0.595307,-0.34371 0.212143,-0.36744 -0.595312,-0.80197 -0.595312,-1.48938 0,-0.8047 1.058333,-1.83309 2.910416,-1.83309 1.852084,0 2.910422,1.14569 2.910417,1.83309 0,0.68741 -0.859896,1.03111 -0.595307,1.48938 0.132286,0.22914 0.330724,0.3437 0.595312,0.34371 l 6.349995,-10e-6 z"
       id="path3084-4"
       inkscape:connector-curvature="0"
       sodipodi:nodetypes="ccssscssccc"
       inkscape:export-filename="C:\Users\Ziphil\Documents\ドキュメント\人工言語\資料\シャレイア語ロゴ (ヘッダー用).png"
       inkscape:export-xdpi="188.05121"
       inkscape:export-ydpi="188.05121" />
    <path
       style="fill:#ffab33;fill-opacity:1;stroke:none;stroke-width:0.26458332"
       d="M 1.3229121,278.31466 H 19.843745 l -3.175,-5.49927 c -0.132291,-0.22913 -0.330729,-0.3437 -0.595307,-0.3437 -0.424283,0 -0.396875,0.91655 -0.992187,1.26025 -0.696886,0.40235 -2.116667,0 -3.042706,-1.60395 -0.926042,-1.60395 -0.463021,-3.09333 0.132292,-3.43704 0.595315,-0.3437 1.322914,0.22914 1.587492,-0.22914 0.132297,-0.22913 0.132297,-0.45827 0,-0.68741 l -3.174998,-5.49925 z"
       id="path3084-51-2"
       inkscape:connector-curvature="0"
       sodipodi:nodetypes="ccssscssccc"
       inkscape:export-filename="C:\Users\Ziphil\Documents\ドキュメント\人工言語\資料\シャレイア語ロゴ (ヘッダー用).png"
       inkscape:export-xdpi="188.05121"
       inkscape:export-ydpi="188.05121" />
    <path
       style="fill:#33c3ff;fill-opacity:1;stroke:none;stroke-width:0.26458332"
       d="m 38.364584,278.31466 9.260417,16.03951 H 29.104167 Z"
       id="path4097-1-7"
       inkscape:connector-curvature="0"
       sodipodi:nodetypes="cccc"
       inkscape:export-filename="C:\Users\Ziphil\Documents\ドキュメント\人工言語\資料\シャレイア語ロゴ (ヘッダー用).png"
       inkscape:export-xdpi="188.05121"
       inkscape:export-ydpi="188.05121" />
  </g>
</svg>
